<svg width="502" height="560" viewBox="0 0 502 560" fill="none" xmlns="http://www.w3.org/2000/svg">
<path d="M112 221L111 222H104L103 223H98L97 224H92L91 225H88L87 226H84L83 227H81L80 228H78L77 229H75L74 230H72L71 231H69L68 232H67L66 233H65L64 234H62L61 235H59L56 238H55L53 240H52L49 243H48L46 245H45L42 248H41L35 254H34L29 259V260L23 266V267L20 270V271L18 273V274L16 276V277L15 278V279L14 280V281L12 283V284L11 285V287L10 288V289L9 290V291L8 292V294L7 295V297L6 298V299L5 300V303L4 304V306L3 307V310L2 311V315L1 316V322L0 323V556L1 557V558L3 560H14L15 559H21L22 558H26L27 557H31L32 556H35L36 555H39L40 554H43L44 553H46L47 552H49L50 551H52L53 550H54L55 549H57L58 548H59L60 547H61L62 546H63L64 545H65L66 544H67L68 543H69L70 542H71L72 541H73L75 539H76L77 538H78L81 535H82L85 532H86L88 530H91V529L92 528V527L103 516V515L108 510V509L111 506V505L113 503V502L115 500V499L117 497V496L118 495V494L119 493V492L120 491V490L122 488V487L123 486V485L124 484V483L126 481V478L127 477V475L128 474V472L129 471V468L130 467V465L131 464V461L132 460V457L133 456V452L134 451V439L135 438V282L136 281V263L135 262V224L133 222H132L131 221H112Z" fill="#42A8BA"/>
<path d="M289 111L288 112H281L280 113H276L275 114H272L271 115H268L267 116H264L263 117H261L260 118H258L257 119H255L254 120H253L252 121H250L249 122H248L247 123H246L245 124H244L243 125H242L241 126H240L239 127H238L237 128H236L234 130H233L231 132H230L228 134H227L224 137H223L218 142H217L211 148V149L205 155V156L202 159V160L200 162V163L198 165V166L196 168V169L195 170V171L194 172V173L193 174V175L192 176V177L191 178V179L190 180V181L189 182V183L188 184V186L187 187V189L186 190V192L185 193V195L184 196V199L183 200V203L182 204V208L181 209V215L180 216V244L179 245V510L180 511V514L181 515H182L183 516H195L196 515H205L206 514H211L212 513H216L217 512H220L221 511H224L225 510H228L229 509H231L232 508H234L235 507H237L238 506H239L240 505H242L243 504H244L245 503H247L248 502H249L250 501H251L252 500H253L254 499H255L257 497H258L259 496H260L262 494H263L265 492H266L267 491H268L269 490H270V489L272 487H273L274 486H276V485L278 483V482L287 473V472L292 467V466L294 464V463L297 460V459L298 458V457L300 455V454L301 453V452L303 450V449L304 448V447L305 446V444L306 443V442L307 441V440L308 439V437L309 436V435L310 434V432L311 431V428L312 427V425L313 424V421L314 420V415L315 414V407L316 406V390L317 389V122L316 121V112H314L313 111H289Z" fill="#4EBED2"/>
<path d="M472 0L471 1H465L464 2H460L459 3H456L455 4H452L451 5H448L447 6H445L444 7H442L441 8H439L438 9H437L436 10H434L433 11H432L431 12H430L429 13H428L427 14H426L425 15H424L423 16H422L421 17H420L419 18H418L417 19H416L415 20H414L413 21H412L405 28H404L390 42V43L386 47V48L384 50V51L382 53V54L380 56V57L379 58V59L377 61V62L376 63V64L375 65V66L374 67V68L373 69V71L372 72V73L371 74V75L370 76V78L369 79V81L368 82V84L367 85V88L366 89V91L365 92V95L364 96V102L363 103V118L362 119V464L363 465V469H387L388 468H396L397 467H401L402 466H405L406 465H409L410 464H412L413 463H415L416 462H418L419 461H421L422 460H423L424 459H426L427 458H428L429 457H430L431 456H432L433 455H434L435 454H436L437 453H438L439 452H440L442 450H443L445 448H446L447 447H448L451 444H452L455 441H456L463 434H464L467 431V430L474 423V422L478 418V417L480 415V414L482 412V411L483 410V409L485 407V406L486 405V404L487 403V402L488 401V400L489 399V398L490 397V395L491 394V393L492 392V390L493 389V387L494 386V384L495 383V381L496 380V378L497 377V374L498 373V370L499 369V365L500 364V353L501 352V87L502 86L501 85L502 84V81L501 80V2L500 1V0H472Z" fill="#3188B4"/>
</svg>
