<?xml version="1.0" encoding="UTF-8"?>
<svg width="32" height="32" viewBox="0 0 32 32" fill="none" xmlns="http://www.w3.org/2000/svg">
  <rect width="32" height="32" rx="6" fill="#2D7984"/>
  <path d="M7.347 13.173V8.737L7.503 8.58H8.718L8.874 8.737V13.173L8.718 13.33H7.503L7.347 13.173Z" fill="white"/>
  <path d="M7.347 23.263V18.827L7.503 18.67H8.718L8.874 18.827V23.263L8.718 23.42H7.503L7.347 23.263Z" fill="white"/>
  <path d="M4.379 16.042H4.224L3.579 15.4V15.243L4.952 13.876L5.58 13.877L5.7 14.034V14.657L4.379 16.042Z" fill="white"/>
  <path d="M4.379 15.958H4.224L3.579 16.6V16.757L4.952 18.124L5.58 18.123L5.7 17.966V17.343L4.379 15.958Z" fill="white"/>
  <path d="M0.068 16.76H4.724L4.88 16.917V17.637L4.724 17.794H0.068L0 17.637V16.917L0.068 16.76Z" fill="white"/>
  <path d="M27.61 16.76H31.932L32 16.917V17.637L31.932 17.794H27.276L27.188 17.637L27.45 16.917L27.61 16.76Z" fill="white"/>
  <path d="M13.252 17.579L13.172 17.658H11.069L10.989 17.737C10.989 17.857 11.132 18.254 11.663 18.254C11.883 18.254 12.104 18.175 12.183 18.056L12.263 17.977H13.052L13.132 18.056C13.052 18.453 12.719 19.009 11.663 19.009C10.524 19.009 9.972 18.254 9.972 17.182C9.972 16.11 10.523 15.354 11.582 15.354C12.641 15.354 13.252 16.11 13.252 17.182V17.579ZM12.183 16.506C12.183 16.427 12.104 15.91 11.582 15.91C11.061 15.91 10.989 16.427 10.989 16.506L11.069 16.585H12.104L12.183 16.506Z" fill="white"/>
  <path d="M15.155 18.056C15.155 18.175 15.234 18.254 15.395 18.254H15.997L16.076 18.334V19.134L15.997 19.213H15.395C14.752 19.213 14.231 18.929 14.231 18.056V16.506L14.152 16.427H13.77L13.691 16.347V15.547L13.77 15.468H14.152L14.231 15.388V14.714L14.311 14.635H15.075L15.155 14.714V15.388L15.234 15.468H15.998L16.077 15.547V16.347L15.998 16.427H15.234L15.155 16.506V18.056Z" fill="white"/>
  <path d="M17.674 19.213H16.91L16.83 19.134V13.522L16.91 13.442H17.674L17.754 13.522V19.134L17.674 19.213Z" fill="white"/>
  <path d="M19.528 14.635H18.764L18.684 14.556V13.522L18.764 13.442H19.528L19.608 13.522V14.556L19.528 14.635ZM19.528 19.213H18.764L18.684 19.134V15.547L18.764 15.468H19.528L19.608 15.547V19.134L19.528 19.213Z" fill="white"/>
  <path d="M22.738 13.522V14.556L22.659 14.635H22.098C21.937 14.635 21.858 14.714 21.858 14.833V15.051L21.937 15.13H22.578L22.658 15.209V16.009L22.578 16.089H21.937L21.858 16.168V19.134L21.778 19.213H21.014L20.934 19.134V16.168L20.855 16.089H20.455L20.375 16.009V15.209L20.455 15.13H20.855L20.934 15.051V14.833C20.934 14.08 21.361 13.443 22.098 13.443H22.659L22.738 13.522Z" fill="white"/>
  <path d="M25.273 19.231C25.001 19.981 24.729 20.355 23.889 20.355H23.54L23.461 20.276V19.476L23.54 19.396H23.889C24.242 19.396 24.32 19.317 24.399 19.23V19.15L23.318 16.009V15.547L23.398 15.468H23.999L24.079 15.547L24.902 17.977H24.982L25.806 15.547L25.885 15.468H26.487L26.566 15.547V16.009L25.486 19.23L25.273 19.231Z" fill="white"/>
  <path d="M8.472 19.213L8.392 19.134L8.393 16.822C8.393 16.441 8.251 16.177 7.845 16.168C7.653 16.162 7.45 16.168 7.239 16.18L7.209 16.232L7.209 19.134L7.129 19.213H6.365L6.285 19.134V15.42L6.365 15.34L8.062 15.32C8.981 15.32 9.342 16.001 9.342 16.506V19.134L9.262 19.213H8.472Z" fill="white"/>
</svg>
