<svg width="800" height="800" viewBox="0 0 800 800" fill="none" xmlns="http://www.w3.org/2000/svg">
  <path d="M318.154 700C318.154 700 150 700 150 525C150 350 318.154 350 318.154 350C318.154 350 318.154 700 318.154 700Z" fill="#42A5B2"/>
  <path d="M484.077 700C484.077 700 316.923 700 316.923 475C316.923 250 484.077 250 484.077 250C484.077 250 484.077 700 484.077 700Z" fill="#58CBE0"/>
  <path d="M650 700C650 700 482.846 700 482.846 425C482.846 150 650 150 650 150C650 150 650 700 650 700Z" fill="#2980B9"/>
</svg>